<svg version="1.1" id="Layer_1" xmlns="http://www.w3.org/2000/svg" xmlns:xlink="http://www.w3.org/1999/xlink" x="0px" y="0px"
	 width="100%" viewBox="0 0 90 90" enable-background="new 0 0 90 90" xml:space="preserve">
<path fill="#000000" opacity="1.000000" stroke="none" 
	d="
M48.000000,91.000000 
	C32.000000,91.000000 16.500000,91.000000 1.000000,91.000000 
	C1.000000,61.000000 1.000000,31.000000 1.000000,1.000000 
	C31.000000,1.000000 61.000000,1.000000 91.000000,1.000000 
	C91.000000,31.000000 91.000000,61.000000 91.000000,91.000000 
	C76.833336,91.000000 62.666668,91.000000 48.000000,91.000000 
M46.427963,37.825302 
	C37.726810,30.381544 27.986197,29.031462 16.839941,33.571766 
	C16.839941,26.122616 16.839941,19.371286 16.839941,12.326918 
	C12.433342,12.326918 8.548389,12.326918 4.522821,12.326918 
	C4.326504,13.233934 4.074513,13.858476 4.073126,14.483574 
	C4.039155,29.786659 3.824989,45.093575 4.103863,60.391407 
	C4.251112,68.468834 12.758375,77.832237 20.740368,79.999519 
	C30.665407,82.694374 39.303085,80.249771 47.678867,74.178345 
	C55.692501,81.674301 65.146767,82.961174 74.989594,79.320709 
	C82.164375,76.667038 87.370537,71.459801 89.110008,63.001789 
	C82.802277,63.500572 77.099525,61.728115 71.570984,65.888603 
	C65.880150,70.171227 58.948193,68.248108 55.287308,62.664909 
	C51.771332,57.302692 53.067429,50.364975 58.375462,46.134682 
	C62.926720,42.507515 70.335854,43.522499 74.764809,48.298988 
	C75.435165,49.021950 76.416725,49.877796 77.289589,49.918644 
	C81.083565,50.096207 84.890587,49.994846 88.986069,49.994846 
	C88.999985,44.191734 85.840942,40.147846 82.217590,37.189613 
	C71.153038,28.156139 57.771778,28.779016 46.427963,37.825302 
z"/>
<path fill="#233984" opacity="1.000000" stroke="none" 
	d="
M47.062477,73.856056 
	C39.303085,80.249771 30.665407,82.694374 20.740368,79.999519 
	C12.758375,77.832237 4.251112,68.468834 4.103863,60.391407 
	C3.824989,45.093575 4.039155,29.786659 4.073126,14.483574 
	C4.074513,13.858476 4.326504,13.233934 4.522821,12.326918 
	C8.548389,12.326918 12.433342,12.326918 16.839941,12.326918 
	C16.839941,19.371286 16.839941,26.122616 16.839941,33.571766 
	C27.986197,29.031462 37.726810,30.381544 46.574326,38.282982 
	C44.528572,43.180225 42.336460,47.619785 39.993881,51.742973 
	C39.226440,50.456829 38.703117,49.409626 37.976353,48.530624 
	C34.759342,44.639740 29.383007,42.959038 25.146767,44.443745 
	C20.304710,46.140766 17.225965,50.174957 17.008524,55.107574 
	C16.754608,60.867592 19.022240,64.723259 23.998178,66.992126 
	C30.120300,69.783615 35.924255,67.248863 40.396065,60.200920 
	C42.786018,64.926147 44.924248,69.391098 47.062477,73.856056 
z"/>
<path fill="#2494D6" opacity="1.000000" stroke="none" 
	d="
M47.370674,74.017197 
	C44.924248,69.391098 42.786018,64.926147 40.335747,59.765961 
	C40.063923,56.733604 40.104134,54.396473 40.144344,52.059345 
	C42.336460,47.619785 44.528572,43.180225 46.884792,38.444710 
	C57.771778,28.779016 71.153038,28.156139 82.217590,37.189613 
	C85.840942,40.147846 88.999985,44.191734 88.986069,49.994846 
	C84.890587,49.994846 81.083565,50.096207 77.289589,49.918644 
	C76.416725,49.877796 75.435165,49.021950 74.764809,48.298988 
	C70.335854,43.522499 62.926720,42.507515 58.375462,46.134682 
	C53.067429,50.364975 51.771332,57.302692 55.287308,62.664909 
	C58.948193,68.248108 65.880150,70.171227 71.570984,65.888603 
	C77.099525,61.728115 82.802277,63.500572 89.110008,63.001789 
	C87.370537,71.459801 82.164375,76.667038 74.989594,79.320709 
	C65.146767,82.961174 55.692501,81.674301 47.370674,74.017197 
z"/>
<path fill="#000000" opacity="1.000000" stroke="none" 
	d="
M39.993881,51.742973 
	C40.104134,54.396473 40.063923,56.733604 40.084023,59.505692 
	C35.924255,67.248863 30.120300,69.783615 23.998178,66.992126 
	C19.022240,64.723259 16.754608,60.867592 17.008524,55.107574 
	C17.225965,50.174957 20.304710,46.140766 25.146767,44.443745 
	C29.383007,42.959038 34.759342,44.639740 37.976353,48.530624 
	C38.703117,49.409626 39.226440,50.456829 39.993881,51.742973 
z"/>
</svg>